# xmcd CD database file
#
# Track frame offsets:
#	150
#	69268
#	114881
#	143005
#	194971
#	233818
#	275830
#
# Disc length: 4253 seconds
#
# Revision: 0
# Processed by: cddbd v1.5.2PL0 Copyright (c) Steve Scherf et al.
# Submitted via: CDex 1.70beta2
#
DISCID=66109b07
DTITLE=Avram Fefer - Lucille's Gemini Dream
DYEAR=2001
DGENRE=Jazz
TTITLE0=Loss (For Flo)
TTITLE1=Ripple
TTITLE2=Cycle Of Fits
TTITLE3=Lucille's Gemini Dream
TTITLE4=Going Nowhere Fast
TTITLE5=Heavenly Places
TTITLE6=African Interlude
EXTD=YEAR: 2001
EXTT0=
EXTT1=
EXTT2=
EXTT3=
EXTT4=
EXTT5=
EXTT6=
PLAYORDER=
